<svg xmlns="http://www.w3.org/2000/svg" width="900" height="520" viewBox="0 0 900 520">
  <defs>
    <linearGradient id="b" x1="0" y1="0" x2="1" y2="1">
      <stop offset="0" stop-color="#0072ff"/>
      <stop offset="1" stop-color="#00d4ff"/>
    </linearGradient>
  </defs>
  <rect width="900" height="520" fill="#f8fbff"/>
  <rect x="60" y="70" width="300" height="200" rx="18" fill="white" stroke="#e5e7eb"/>
  <rect x="110" y="110" width="200" height="20" rx="4" fill="#e2e8f0"/>
  <rect x="110" y="140" width="140" height="14" rx="4" fill="#e2e8f0"/>
  <rect x="110" y="170" width="180" height="14" rx="4" fill="url(#b)"/>
  <rect x="110" y="200" width="120" height="12" rx="4" fill="#e2e8f0"/>
  <rect x="420" y="70" width="420" height="320" rx="18" fill="white" stroke="#e5e7eb"/>
  <rect x="450" y="110" width="360" height="20" rx="4" fill="#e2e8f0"/>
  <rect x="450" y="140" width="220" height="14" rx="4" fill="#e2e8f0"/>
  <rect x="450" y="170" width="300" height="180" rx="10" fill="#f1f5f9"/>
  <circle cx="510" cy="230" r="40" fill="url(#b)" opacity="0.9"/>
  <rect x="60" y="300" width="260" height="160" rx="18" fill="white" stroke="#e5e7eb"/>
  <rect x="90" y="340" width="200" height="16" rx="4" fill="#e2e8f0"/>
  <rect x="90" y="370" width="120" height="12" rx="4" fill="#e2e8f0"/>
</svg>
